<svg version="1.1" id="Layer_1" xmlns="http://www.w3.org/2000/svg" xmlns:xlink="http://www.w3.org/1999/xlink" x="0px" y="0px" viewBox="0 0 111.4 48.5" style="enable-background:new 0 0 111.4 48.5;" xml:space="preserve">
 <style type="text/css">
  .st0{fill:#C60C30;}
	.st1{clip-path:url(#SVGID_2_);fill:#1E1E1E;}
	.st2{clip-path:url(#SVGID_4_);fill:#1E1E1E;}
	.st3{clip-path:url(#SVGID_6_);fill:#1E1E1E;}
	.st4{clip-path:url(#SVGID_8_);fill:#1E1E1E;}
	.st5{clip-path:url(#SVGID_10_);fill:#1E1E1E;}
 </style>
 <g>
  <polygon class="st0" points="0,0 0,48.5 16.5,48.5 16.5,43.4 5.1,43.4 5.1,5.1 16.5,5.1 16.5,0 	">
  </polygon>
  <polygon class="st0" points="94.9,0 94.9,5.1 106.3,5.1 106.3,43.4 94.9,43.4 94.9,48.5 111.4,48.5 111.4,0 	">
  </polygon>
  <g>
   <g>
    <defs>
     <rect id="SVGID_1_" width="111.4" height="48.5">
     </rect>
    </defs>
    <clipPath id="SVGID_2_">
     <use href="#SVGID_1_" style="overflow:visible;">
     </use>
    </clipPath>
    <path class="st1" d="M41.2,23.8c0-3-0.8-3.9-1.4-4.5c-1-1.1-2.7-1.7-4.4-1.7c-0.7,0-3.6,0.1-5.7,3v-2.5h-6.8V19h2.7v15.6h-1.8
				h-0.9h-1.8V18.1h-6.8V19h2.9v15.6h-2.9v0.9H23h0.9h8.7v-0.9h-2.8v-7.4c0-3.2,0.1-5.7,2.1-7.4c0.8-0.6,1.8-1,2.7-1
				c0.6,0,2.1,0.2,2.5,1.9c0.1,0.4,0.1,0.8,0.2,2.5v11.4h-2.7v0.9H44v-0.9h-2.8V23.8z">
    </path>
   </g>
   <g>
    <defs>
     <rect id="SVGID_3_" width="111.4" height="48.5">
     </rect>
    </defs>
    <clipPath id="SVGID_4_">
     <use xlink:href="#SVGID_3_" style="overflow:visible;">
     </use>
    </clipPath>
    <path class="st2" d="M69.1,34.8c-1,0-1-1-1-2.5v-8.8c0-1.6,0-3-1.2-4.2c-1.1-1-3-1.7-5.1-1.7c-4.3,0-7,2.4-7,4.5
				c0,1.1,0.7,2,1.9,2c1.1,0,1.9-0.9,1.9-1.8c0-1-0.9-1.5-0.9-2c0-0.6,1.6-1.8,3.5-1.8c2.8,0,2.9,2,3,3.2v4.2
				c-1.6,0-3.9,0.2-5.7,0.7c-2.8,0.9-4.8,2.7-4.8,5.3c0,0.2,0,0.4,0,0.6c-0.2,0.8-0.6,2.2-2.5,2.2c-2.1,0-2.1-1.8-2.1-3.1V19h4.5
				v-0.9h-4.5v-7h-0.6c-0.2,0.9-0.5,2.2-2.2,4.1c-1.1,1.3-2.3,2.5-3.9,3.2V19h2.7v10.7c0,2.2,0,3.1,0.3,3.9c0.6,1.7,2.3,2.5,4.4,2.5
				c2.5,0,3.6-1.1,4.2-2.2c0.8,1.4,2.4,2.2,4.3,2.2c2.9,0,4.7-1.6,5.7-3.5c0.1,0.8,0.2,1.9,1.2,2.7c0.6,0.5,1.5,0.8,2.5,0.8
				c1.8,0,2.7-1,3.2-1.4L70.4,34C70.1,34.3,69.7,34.8,69.1,34.8 M64.2,28.1c-0.1,2.2-0.2,3.6-1.5,4.9c-0.4,0.3-1.2,1-2.4,1
				c-1.4,0-2.7-0.9-2.7-3c0-3.5,3.3-4.4,6.6-4.5V28.1z">
    </path>
   </g>
   <g>
    <defs>
     <rect id="SVGID_5_" width="111.4" height="48.5">
     </rect>
    </defs>
    <clipPath id="SVGID_6_">
     <use xlink:href="#SVGID_5_" style="overflow:visible;">
     </use>
    </clipPath>
    <path class="st3" d="M79.5,35.1c-2.2,0-3.3-1.2-3.8-2.6c-0.4-1.2-0.4-2.8-0.4-4.2c0-1.9,0-5.8,0.7-7.4c0.8-2.1,2.6-2.4,3.8-2.4
				c2.3,0,3.3,1.1,3.3,1.4c0,0.2-0.1,0.3-0.2,0.4c-0.3,0.3-0.8,1-0.8,2c0,1.1,0.8,2.2,2,2.2s2.2-1,2.2-2.4c0-2.1-2.4-4.6-6.3-4.6
				c-5,0-9.2,3.9-9.2,9.4c0,5,3.8,9,8.7,9c4.6,0,6.8-3.2,7.4-6.2h-1.1C85.1,32.4,83,35.1,79.5,35.1">
    </path>
   </g>
   <g>
    <defs>
     <rect id="SVGID_7_" width="111.4" height="48.5">
     </rect>
    </defs>
    <clipPath id="SVGID_8_">
     <use xlink:href="#SVGID_7_" style="overflow:visible;">
     </use>
    </clipPath>
    <path class="st4" d="M97.6,32.2c-0.1,0.7-0.4,2.4-2.5,2.4S93,32.8,93,31.5V19h4.5v-0.9H93v-7h-0.6c-0.2,0.9-0.5,2.2-2.2,4.1
				c-1.1,1.3-2.3,2.5-3.9,3.2V19H89v10.7c0,2.2,0,3.1,0.3,3.9c0.6,1.7,2.3,2.5,4.4,2.5c3.9,0,4.5-2.7,4.7-3.8h-0.8V32.2z">
    </path>
   </g>
   <g>
    <defs>
     <rect id="SVGID_9_" width="111.4" height="48.5">
     </rect>
    </defs>
    <clipPath id="SVGID_10_">
     <use xlink:href="#SVGID_9_" style="overflow:visible;">
     </use>
    </clipPath>
    <path class="st5" d="M18.8,14.4c1.6,0,2.9-1.3,2.9-2.9s-1.3-2.9-2.9-2.9s-2.9,1.3-2.9,2.9S17.2,14.4,18.8,14.4">
    </path>
   </g>
  </g>
 </g>
</svg>