<svg height="26.986015" id="Layer_1" inkscape:version="0.91 r13725" version="1.1" viewBox="0 0 38.875896 26.986015" width="38.875896" x="0px" xml:space="preserve" xmlns="http://www.w3.org/2000/svg" xmlns:cc="http://creativecommons.org/ns#" xmlns:dc="http://purl.org/dc/elements/1.1/" xmlns:inkscape="http://www.inkscape.org/namespaces/inkscape" xmlns:rdf="http://www.w3.org/1999/02/22-rdf-syntax-ns#" xmlns:sodipodi="http://sodipodi.sourceforge.net/DTD/sodipodi-0.dtd" xmlns:svg="http://www.w3.org/2000/svg" y="0px" xmlns:xlink="http://www.w3.org/1999/xlink">
 <g clip-path="url(#clipPath3355)" id="g3" transform="translate(-4.1840024,-9.0407543)">
  <path fill="#000" d="m 16.451,11.896 c 0,-1.264 -0.774,-2.864 -4.027,-2.864 -1.335,0 -5.009,0 -5.009,0 L 5.991,15.62 c 0,0 2.707,0 5.222,0 4.077,0 5.238,-1.93 5.238,-3.724 z" id="path29" inkscape:connector-curvature="0">
  </path>
  <path fill="#000" d="m 29.944,11.896 c 0,-1.264 -0.772,-2.864 -4.024,-2.864 -1.336,0 -5.01,0 -5.01,0 l -1.423,6.587 c 0,0 2.706,0 5.219,0 4.079,10e-4 5.238,-1.929 5.238,-3.723 z" id="path31" inkscape:connector-curvature="0">
  </path>
  <path fill="#000" d="m 14.644,21.811 c 0,-1.264 -0.774,-2.868 -4.027,-2.868 -1.335,0 -5.009,0 -5.009,0 l -1.424,6.592 c 0,0 2.707,0 5.22,0 4.078,0 5.24,-1.935 5.24,-3.724 z" id="path33" inkscape:connector-curvature="0">
  </path>
  <path fill="#000" d="m 28.137,21.811 c 0,-1.264 -0.775,-2.868 -4.025,-2.868 -1.337,0 -5.009,0 -5.009,0 l -1.426,6.592 c 0,0 2.707,0 5.222,0 4.079,0 5.238,-1.935 5.238,-3.724 z" id="path35" inkscape:connector-curvature="0">
  </path>
  <path fill="#000" d="m 42.254,17.79 c 0,-1.265 -0.775,-2.868 -4.025,-2.868 -1.337,0 -5.009,0 -5.009,0 l -1.426,6.591 c 0,0 2.709,0 5.22,0 4.079,0 5.24,-1.93 5.24,-3.723 z" id="path37" inkscape:connector-curvature="0">
  </path>
  <path fill="#000" d="m 40.308,28.113 c 0,-1.265 -0.773,-2.864 -4.025,-2.864 -1.335,0 -5.009,0 -5.009,0 l -1.424,6.588 c 0,0 2.705,0 5.22,0 4.078,0 5.238,-1.935 5.238,-3.724 z" id="path39" inkscape:connector-curvature="0">
  </path>
  <path fill="#000" d="m 26.198,32.135 c 0,-1.27 -0.772,-2.873 -4.022,-2.873 -1.338,0 -5.012,0 -5.012,0 l -1.424,6.591 c 0,0 2.707,0 5.22,0 4.079,10e-4 5.238,-1.929 5.238,-3.718 z" id="path41" inkscape:connector-curvature="0">
  </path>
 </g>
</svg>